<?xml version="1.0" standalone="no"?>
<!DOCTYPE svg PUBLIC "-//W3C//DTD SVG 20010904//EN"
 "http://www.w3.org/TR/2001/REC-SVG-20010904/DTD/svg10.dtd">
<svg version="1.0" xmlns="http://www.w3.org/2000/svg"
 width="503.000000pt" height="496.000000pt" viewBox="0 0 503.000000 496.000000"
 preserveAspectRatio="xMidYMid meet">

<g transform="translate(0.000000,496.000000) scale(0.100000,-0.100000)"
fill="#000000" stroke="none">
<path d="M3110 3929 c-63 -25 -85 -55 -140 -186 -64 -154 -103 -203 -162 -203
-20 0 -86 7 -145 16 -177 27 -290 5 -419 -80 -129 -86 -244 -126 -364 -126
-81 0 -158 34 -245 108 -33 29 -73 56 -90 62 -23 8 -12 -6 49 -62 109 -101
180 -143 279 -169 76 -19 91 -20 194 -9 186 19 310 16 367 -9 35 -16 51 -18
56 -10 6 8 9 8 15 -1 4 -6 18 -15 31 -21 l25 -9 -29 -42 c-16 -24 -37 -59 -47
-78 -9 -19 -30 -46 -47 -60 l-29 -26 22 -59 c25 -69 51 -94 97 -95 37 0 41 10
12 28 -20 12 -60 81 -60 103 0 6 43 56 95 111 52 55 95 106 95 113 0 19 -67
162 -79 170 -6 3 -11 11 -11 16 0 22 21 -5 60 -77 41 -73 43 -75 74 -68 62 13
86 32 86 67 0 17 5 39 10 47 7 11 10 4 10 -26 l0 -42 68 -17 c37 -10 86 -24
110 -31 54 -18 52 -18 52 6 0 11 -7 20 -15 20 -8 0 -15 5 -15 10 0 6 -7 10
-16 10 -26 0 -114 42 -114 54 1 6 16 29 34 50 31 36 33 37 29 14 -4 -23 0 -27
49 -44 58 -20 127 -25 130 -9 1 6 -12 14 -28 19 -60 18 -85 29 -109 48 l-24
18 25 54 c14 30 32 87 40 126 17 81 34 125 62 157 18 20 26 22 89 16 45 -4 77
-1 91 6 28 15 28 31 0 31 -19 0 -20 2 -8 10 8 5 25 10 38 10 12 0 22 4 22 10
0 13 -35 31 -95 46 -58 16 -90 17 -125 3z m105 -69 c3 -5 2 -10 -4 -10 -5 0
-13 5 -16 10 -3 6 -2 10 4 10 5 0 13 -4 16 -10z m-764 -547 c23 -36 26 -43 9
-28 -31 28 -63 75 -51 75 5 0 24 -21 42 -47z"/>
<path d="M2363 3256 c-10 -13 -30 -45 -46 -70 -15 -26 -41 -55 -58 -64 -28
-16 -30 -19 -24 -62 10 -65 30 -97 66 -105 40 -9 48 0 21 25 -15 14 -22 33
-22 58 -1 34 7 44 86 117 l86 80 -46 22 -45 22 -18 -23z"/>
<path d="M735 2947 c-3 -7 -4 -69 -3 -138 l3 -124 68 -3 c55 -2 67 0 67 13 0
11 -11 15 -46 15 l-45 0 3 48 c3 43 5 47 31 50 38 5 36 32 -3 32 -28 0 -30 2
-30 39 0 39 1 40 38 43 25 2 37 8 37 18 0 21 -113 28 -120 7z"/>
<path d="M925 2935 c-46 -45 -22 -102 63 -147 39 -21 43 -54 7 -70 -19 -8 -31
-8 -52 1 -21 10 -28 9 -34 -1 -12 -19 18 -38 62 -38 51 0 89 32 89 75 0 34 0
34 -95 110 -25 20 -28 27 -19 42 9 13 22 17 52 15 42 -2 65 14 41 29 -29 18
-89 10 -114 -16z"/>
<path d="M1080 2940 c0 -16 7 -20 35 -20 l35 0 0 -120 c0 -113 1 -120 20 -120
19 0 20 7 20 120 l0 120 35 0 c28 0 35 4 35 20 0 19 -7 20 -90 20 -83 0 -90
-1 -90 -20z"/>
<path d="M3590 2910 c-11 -11 -20 -24 -20 -29 0 -18 18 -21 30 -6 16 19 59 19
66 0 10 -26 -4 -59 -52 -120 l-46 -60 72 -3 c40 -2 75 0 78 3 10 9 -18 23 -37
19 -9 -3 -22 0 -29 4 -10 7 -5 21 23 61 20 31 35 65 35 82 0 38 -32 69 -70 69
-17 0 -39 -9 -50 -20z"/>
<path d="M3791 2913 c-29 -24 -44 -91 -32 -145 15 -64 61 -93 116 -72 59 23
59 205 0 228 -29 11 -62 6 -84 -11z m77 -25 c16 -16 16 -140 0 -156 -7 -7 -22
-12 -34 -12 -28 0 -49 55 -41 112 8 61 44 87 75 56z"/>
<path d="M3980 2910 c-11 -11 -20 -24 -20 -29 0 -18 18 -21 30 -6 17 21 57 19
69 -3 12 -22 -4 -56 -53 -117 -54 -67 -55 -65 29 -65 57 0 76 3 72 13 -2 7
-16 11 -34 9 -17 -2 -34 1 -37 6 -3 6 10 33 29 62 20 30 35 64 35 81 0 38 -32
69 -70 69 -17 0 -39 -9 -50 -20z"/>
<path d="M4167 2923 c-4 -3 -7 -30 -7 -60 l0 -53 38 0 c43 0 62 -14 62 -46 0
-32 -25 -47 -65 -41 -36 6 -58 -9 -34 -24 8 -5 31 -9 52 -9 77 0 117 85 61
129 -15 12 -37 21 -50 21 -20 0 -24 5 -24 30 0 28 2 30 40 30 29 0 40 4 40 15
0 11 -13 15 -53 15 -30 0 -57 -3 -60 -7z"/>
<path d="M1254 2715 c-4 -9 -2 -21 4 -27 15 -15 44 -1 40 19 -4 23 -36 29 -44
8z"/>
<path d="M905 2408 c-3 -7 -4 -121 -3 -253 l3 -240 53 -3 52 -3 0 89 0 89 60
6 c117 10 171 58 177 154 5 73 -18 119 -73 147 -50 27 -260 37 -269 14z m213
-94 c16 -11 22 -25 22 -55 0 -54 -27 -79 -85 -79 l-45 0 0 75 0 75 43 0 c23 0
53 -7 65 -16z"/>
<path d="M1350 2165 l0 -255 50 0 49 0 3 98 3 97 29 0 c26 0 36 -10 89 -97
l60 -98 54 0 c66 0 66 -4 -17 119 -33 50 -60 93 -60 97 0 4 15 22 34 39 41 37
57 89 46 142 -18 79 -94 113 -255 113 l-85 0 0 -255z m205 153 c30 -14 40 -44
26 -81 -11 -27 -29 -35 -91 -40 l-35 -2 -3 68 -3 67 40 0 c22 0 52 -5 66 -12z"/>
<path d="M1814 2407 c-2 -7 -3 -120 -2 -252 l3 -240 143 -3 143 -3 -3 43 -3
43 -87 3 -88 3 0 64 0 64 83 3 82 3 0 40 0 40 -82 3 -83 3 0 54 0 54 88 3 87
3 3 43 3 42 -141 0 c-104 0 -142 -3 -146 -13z"/>
<path d="M2151 2408 c0 -7 37 -121 82 -253 l82 -240 59 0 59 0 81 240 c45 132
85 239 91 239 5 -1 44 -66 87 -145 l77 -144 1 -97 0 -98 50 0 50 0 0 95 0 95
80 148 c44 82 80 154 80 160 0 8 -18 12 -50 12 l-50 0 -50 -100 c-28 -55 -54
-100 -58 -100 -4 0 -29 44 -57 98 l-50 97 -110 0 -110 0 -32 -100 c-18 -55
-45 -141 -60 -192 -14 -51 -30 -90 -33 -88 -4 3 -10 19 -14 37 -3 18 -29 104
-57 191 l-50 157 -49 0 c-34 0 -50 -4 -49 -12z"/>
<path d="M3110 2413 c0 -5 -1 -118 -1 -253 l-1 -245 141 -3 142 -3 -3 43 -3
43 -87 3 -88 3 0 64 0 64 83 3 82 3 3 43 3 42 -85 0 -86 0 0 55 0 55 90 0 90
0 0 45 0 45 -140 0 c-77 0 -140 -3 -140 -7z"/>
<path d="M3612 2403 c-11 -21 -172 -476 -172 -486 0 -4 25 -7 55 -7 l54 0 17
58 c9 31 22 60 28 64 19 13 163 9 174 -4 5 -7 16 -35 24 -63 l14 -50 57 -3
c31 -2 57 1 56 5 0 4 -39 118 -87 253 l-88 245 -61 3 c-51 2 -63 0 -71 -15z
m102 -181 c14 -46 26 -87 26 -93 0 -5 -27 -9 -60 -9 -35 0 -60 4 -60 10 0 25
55 189 61 182 4 -4 19 -44 33 -90z"/>
<path d="M4005 2263 c3 -87 9 -166 12 -176 4 -14 13 -17 41 -15 l37 3 6 80 c4
44 8 121 9 170 l3 90 -58 3 -57 3 7 -158z"/>
<path d="M4018 2009 c-12 -6 -18 -22 -18 -44 0 -64 71 -84 106 -31 34 54 -31
109 -88 75z"/>
<path d="M2166 1673 c-3 -3 -6 -25 -6 -48 l0 -42 -48 5 c-44 4 -51 2 -70 -23
-39 -50 -24 -170 22 -180 12 -2 45 -4 73 -2 l53 2 0 142 c0 129 -6 164 -24
146z m-18 -113 c8 0 12 -21 12 -70 0 -68 -1 -71 -27 -81 -21 -8 -34 -8 -53 3
-21 12 -25 22 -28 70 -3 49 0 58 20 72 13 9 32 14 43 12 11 -3 26 -6 33 -6z"/>
<path d="M1680 1619 c0 -12 -8 -28 -17 -35 -17 -13 -17 -15 -1 -24 15 -9 17
-24 16 -81 -3 -77 10 -99 59 -99 31 0 29 18 -2 26 -28 7 -39 43 -33 109 3 35
6 40 31 43 15 2 27 9 27 17 0 8 -12 15 -27 17 -20 2 -29 9 -31 26 -4 28 -22
29 -22 1z"/>
<path d="M3487 1633 c-4 -3 -7 -15 -7 -25 0 -10 -7 -21 -15 -24 -8 -4 -15 -10
-15 -15 0 -5 7 -9 15 -9 12 0 15 -15 15 -74 0 -82 13 -106 56 -106 31 0 31 18
-1 30 -23 9 -25 14 -25 79 0 67 1 70 25 73 14 2 26 8 26 13 0 6 -12 11 -26 13
-19 3 -25 9 -25 28 0 23 -10 31 -23 17z"/>
<path d="M1488 1579 c-21 -12 -25 -83 -5 -96 6 -4 32 -10 57 -13 38 -4 46 -9
48 -29 5 -31 -12 -41 -70 -41 -27 0 -48 -4 -48 -10 0 -6 26 -10 59 -10 68 0
91 15 91 59 0 37 -22 54 -79 61 -41 4 -46 8 -46 30 0 23 4 25 55 30 30 3 55
10 55 15 0 14 -96 17 -117 4z"/>
<path d="M1807 1583 c-14 -14 -7 -158 9 -181 17 -24 70 -30 104 -12 13 7 21 7
25 0 18 -29 25 0 25 96 0 80 -3 105 -12 102 -9 -3 -14 -31 -16 -83 -3 -86 -9
-95 -57 -95 -47 0 -55 15 -55 102 0 72 -6 89 -23 71z"/>
<path d="M2230 1579 c0 -36 55 -181 72 -190 16 -9 18 -17 12 -55 -10 -66 11
-55 34 19 61 189 72 242 50 235 -6 -2 -23 -43 -37 -91 -15 -53 -30 -87 -38
-87 -7 0 -13 1 -13 3 -3 27 -59 172 -68 175 -7 2 -12 -2 -12 -9z"/>
<path d="M2561 1571 c-46 -46 -16 -97 59 -103 39 -3 45 -6 48 -27 5 -31 -12
-41 -70 -41 -27 0 -48 -4 -48 -10 0 -6 26 -10 58 -10 63 0 92 18 92 56 0 35
-23 55 -75 62 -45 6 -50 10 -50 32 0 23 4 25 55 30 70 6 72 24 3 28 -42 2 -56
-1 -72 -17z"/>
<path d="M2747 1583 c-4 -3 -7 -51 -7 -105 0 -80 3 -98 15 -98 12 0 15 16 15
80 0 86 9 100 62 100 39 0 48 -18 48 -102 0 -63 3 -78 15 -78 12 0 15 16 15
80 0 86 9 100 62 100 39 0 48 -18 48 -102 0 -63 3 -78 15 -78 22 0 21 156 -1
188 -17 25 -58 29 -99 10 -21 -9 -31 -9 -46 0 -23 15 -64 15 -90 1 -14 -7 -24
-7 -33 0 -7 6 -16 8 -19 4z"/>
<path d="M3116 1581 c-3 -5 17 -11 45 -13 51 -5 71 -20 66 -48 -1 -10 -19 -17
-56 -20 -57 -6 -81 -26 -81 -66 0 -47 47 -66 106 -44 18 7 30 7 39 0 20 -17
25 0 25 82 0 98 -15 118 -89 118 -28 0 -52 -4 -55 -9z m109 -136 c0 -26 -5
-30 -38 -38 -41 -10 -67 2 -67 32 0 28 23 42 65 39 37 -3 40 -5 40 -33z"/>
<path d="M3317 1584 c-4 -4 -7 -52 -7 -106 0 -80 3 -98 15 -98 12 0 15 15 15
74 0 66 3 77 22 90 12 9 33 16 45 16 14 0 23 6 23 15 0 19 -27 19 -60 1 -21
-12 -26 -12 -35 1 -6 8 -14 11 -18 7z"/>
</g>
</svg>
